<?xml version="1.0" encoding="iso-8859-1"?>
<!-- Generator: Adobe Illustrator 19.0.0, SVG Export Plug-In . SVG Version: 6.00 Build 0)  -->
<svg version="1.1" id="Layer_1" xmlns="http://www.w3.org/2000/svg" xmlns:xlink="http://www.w3.org/1999/xlink" x="0px" y="0px"
	 viewBox="0 0 504 504" style="enable-background:new 0 0 504 504;" xml:space="preserve">
<polygon style="fill:#DF5C4E;" points="151.8,500 9.8,353.6 9.8,148.4 151.8,4 357.4,4 501.8,148.4 501.8,353.6 357.4,500 "/>
<path style="fill:#F4EFEF;" d="M282.6,251.2l90.4-90.4c4.4-4.4,4.4-12,0-16.4l-11.2-11.2c-4.4-4.4-12-4.4-16.4,0L255,223.6
	l-90.4-90.4c-4.4-4.4-12-4.4-16.4,0L137,144.4c-4.4,4.4-4.4,12,0,16.4l90.4,90.4L137,341.6c-4.4,4.4-4.4,12,0,16.4l11.2,11.2
	c4.4,4.4,12,4.4,16.4,0l90.4-90.4l90.4,90.4c4.4,4.4,12,4.4,16.4,0L373,358c4.4-4.4,4.4-12,0-16.4L282.6,251.2z"/>
<path d="M357.4,504H152.2c-1.2,0-2-0.4-2.8-1.2L3.4,356.4c-0.8-0.8-1.2-1.6-1.2-2.8V148.4c0-1.2,0.4-2,1.2-2.8l146-144.4
	c0.8-0.8,1.6-1.2,2.8-1.2h205.2c1.2,0,2,0.4,2.8,1.2l140.4,144.4c0.8,0.8,1.2,1.6,1.2,2.8v205.2c0,1.2-0.4,2-1.2,2.8L360.2,502.8
	C359.4,503.6,358.2,504,357.4,504z M153.8,496h202l138.4-144V150L356.2,8H153.8L9.8,150v202L153.8,496z"/>
<path d="M155.8,376.8c-4,0-8-1.6-11.2-4.4l-11.2-11.2c-6-6-6-16,0-22l87.6-87.6L133.4,164c-6-6-6-16,0-22l11.2-11.2c6-6,16-6,22,0
	l87.6,87.6l87.6-87.6c2.8-2.8,6.8-4.4,11.2-4.4s8,1.6,11.2,4.4l11.2,11.2c6,6,6,16,0,22l-87.6,87.6l87.6,87.6c6,6,6,16,0,22
	l-11.2,11.2c-2.8,2.8-6.8,4.4-11.2,4.4l0,0c-4,0-8-1.6-11.2-4.4l-87.6-87.6l-87.6,87.6C163.8,375.2,159.8,376.8,155.8,376.8z
	 M155.8,133.2c-2,0-4,0.8-5.2,2.4l-11.2,11.2c-2.8,2.8-2.8,8,0,10.8l90.4,90.4c0.8,0.8,1.2,1.6,1.2,2.8s-0.4,2-1.2,2.8L139.4,344
	c-2.8,2.8-2.8,8,0,10.8l11.2,11.2c2.8,2.8,8,2.8,10.8,0l90.4-90.4c1.6-1.6,4-1.6,5.6,0l90.4,90.4c1.6,1.6,3.2,2.4,5.2,2.4l0,0
	c2,0,4-0.8,5.2-2.4l11.2-11.2c2.8-2.8,2.8-8,0-10.8L279,253.6c-0.8-0.8-1.2-1.6-1.2-2.8s0.4-2,1.2-2.8l90.4-90.4
	c2.8-2.8,2.8-8,0-10.8l-11.2-11.2c-2.8-2.8-8-2.8-10.8,0L257,226c-1.6,1.6-4,1.6-5.6,0L161,135.6C159.8,134,157.8,133.2,155.8,133.2
	z"/>
<g>
</g>
<g>
</g>
<g>
</g>
<g>
</g>
<g>
</g>
<g>
</g>
<g>
</g>
<g>
</g>
<g>
</g>
<g>
</g>
<g>
</g>
<g>
</g>
<g>
</g>
<g>
</g>
<g>
</g>
</svg>
