<?xml version="1.0" encoding="UTF-8"?>
<svg width="27px" height="26px" viewBox="0 0 27 26" version="1.1" xmlns="http://www.w3.org/2000/svg" xmlns:xlink="http://www.w3.org/1999/xlink">
    <!-- Generator: Sketch 51.2 (57519) - http://www.bohemiancoding.com/sketch -->
    <title>Shape</title>
    <desc>Created with Sketch.</desc>
    <defs></defs>
    <g id="Product-Addition-Process" stroke="none" stroke-width="1" fill="none" fill-rule="evenodd">
        <g id="Product-Addition" transform="translate(-110.000000, -1000.000000)" fill="#4A4A4A" fill-rule="nonzero">
            <g id="First-Step---Product-Add" transform="translate(46.000000, 463.000000)">
                <g id="Add-Size/Color/Type" transform="translate(4.000000, 530.000000)">
                    <g id="Varieties-&amp;-Add/Edit-Product-Images">
                        <path d="M62.8969426,21.9483065 L71.9959118,21.9483065 L71.9959118,31.0472757 C71.9959118,32.1521505 72.8408161,32.9970548 73.9456909,32.9970548 C75.0505658,32.9970548 75.89547,32.1521505 75.89547,31.0472757 L75.89547,21.9483065 L84.9944392,21.9483065 C86.099314,21.9483065 86.9442183,21.1034022 86.9442183,19.9985274 C86.9442183,18.8936526 86.099314,18.0487483 84.9944392,18.0487483 L75.89547,18.0487483 L75.89547,8.94977911 C75.89547,7.84490428 75.0505658,7 73.9456909,7 C72.8408161,7 71.9959118,7.84490428 71.9959118,8.94977911 L71.9959118,18.0487483 L62.8969426,18.0487483 C61.7920678,18.0487483 60.9471635,18.8936526 60.9471635,19.9985274 C60.9471635,21.1034022 61.8570604,21.9483065 62.8969426,21.9483065 Z" id="Shape"></path>
                    </g>
                </g>
            </g>
        </g>
    </g>
</svg>