<?xml version="1.0" encoding="UTF-8"?>
<svg width="25px" height="25px" viewBox="0 0 25 25" version="1.1" xmlns="http://www.w3.org/2000/svg" xmlns:xlink="http://www.w3.org/1999/xlink">
    <!-- Generator: Sketch 51.2 (57519) - http://www.bohemiancoding.com/sketch -->
    <title>Add Size/ Attributes Icon</title>
    <desc>Created with Sketch.</desc>
    <defs></defs>
    <g id="Product-Addition-Process" stroke="none" stroke-width="1" fill="none" fill-rule="evenodd">
        <g id="Product-Addition" transform="translate(-240.000000, -1000.000000)" fill="#000000" fill-rule="nonzero">
            <g id="First-Step---Product-Add" transform="translate(46.000000, 463.000000)">
                <g id="Add-Size/Color/Type" transform="translate(4.000000, 530.000000)">
                    <g id="Add-Sizes/-Attributes" transform="translate(133.000000, 0.000000)">
                        <g id="Add-Size/-Attributes-Icon" transform="translate(57.151540, 7.151540)">
                            <path d="M16.9764136,0 L16.9764136,24.692895 L24.6929433,24.692895 L24.6929433,0 L16.9764136,0 Z M23.1496373,23.1495891 L18.5197195,23.1495891 L18.5197195,20.8346302 L20.0630254,20.8346302 L20.0630254,19.2913242 L18.5197195,19.2913242 L18.5197195,17.7480183 L21.6063314,17.7480183 L21.6063314,16.2047124 L18.5197195,16.2047124 L18.5197195,14.6614064 L20.0630254,14.6614064 L20.0630254,13.1181005 L18.5197195,13.1181005 L18.5197195,11.5747945 L21.6063314,11.5747945 L21.6063314,10.0314886 L18.5197195,10.0314886 L18.5197195,8.48818266 L20.0630254,8.48818266 L20.0630254,6.94487672 L18.5197195,6.94487672 L18.5197195,5.40157079 L21.6063314,5.40157079 L21.6063314,3.85826485 L18.5197195,3.85826485 L18.5197195,1.54330594 L23.1496373,1.54330594 L23.1496373,23.1495891 Z" id="Shape"></path>
                            <path d="M12.5232043,0.628125517 L10.9513472,0 L9.25988386,0 L9.25988386,2.31495891 C9.25988386,3.16729784 8.56891686,3.85826485 7.71657792,3.85826485 C6.86423899,3.85826485 6.17327198,3.16729784 6.17327198,2.31495891 L6.17327198,0 L4.48180867,0 L2.90995158,0.628125517 C1.14821962,1.32632677 -0.00631790869,3.03201743 4.82283106e-05,4.92700421 L4.82283106e-05,7.71652969 L3.22632929,7.71652969 L3.80815563,10.6256614 C2.30266069,12.8032661 0.771701198,16.9362394 0.771701198,22.3779361 L0.771701198,24.692895 L2.31500714,24.692895 L2.31500714,22.3779361 C2.31500714,17.0620188 3.89458077,13.070258 5.24728842,11.2661334 L5.45409142,10.9898816 L4.49029686,6.17322376 L1.54335417,6.17322376 L1.54335417,4.92700421 C1.53920653,3.66366361 2.30888214,2.52663296 3.48328973,2.06108508 L4.62996604,1.60272322 L4.62996604,2.31495891 C4.62996604,4.01963677 6.01190006,5.40157079 7.71657792,5.40157079 C9.42125579,5.40157079 10.8031898,4.01963677 10.8031898,2.31495891 L10.8031898,1.60272322 L11.9498661,2.06108508 C13.1242737,2.52663296 13.8939493,3.66366361 13.8898017,4.92700421 L13.8898017,6.17322376 L10.942859,6.17322376 L9.97906443,10.9898816 L10.1858674,11.2661334 C11.5385751,13.070258 13.1181487,17.0620188 13.1181487,22.3779361 L13.1181487,24.692895 L14.6614546,24.692895 L14.6614546,22.3779361 C14.6614546,16.9362394 13.1304952,12.8032661 11.6250002,10.6256614 L12.2068266,7.71652969 L15.4331076,7.71652969 L15.4331076,4.92700421 C15.4394738,3.03201743 14.284888,1.32632677 12.5232043,0.628125517 Z" id="Shape"></path>
                            <rect id="Rectangle-path" x="3.85831308" y="23.1495891" width="1.54330594" height="1.54330594"></rect>
                            <rect id="Rectangle-path" x="6.94492495" y="23.1495891" width="1.54330594" height="1.54330594"></rect>
                            <rect id="Rectangle-path" x="10.0315368" y="23.1495891" width="1.54330594" height="1.54330594"></rect>
                        </g>
                    </g>
                </g>
            </g>
        </g>
    </g>
</svg>